<svg width="32" height="32" viewBox="0 0 32 32" fill="none" xmlns="http://www.w3.org/2000/svg">
<rect width="32" height="32" rx="16" fill="#22C55E" fill-opacity="0.1"/>
<path d="M10 18.625C9.375 18.625 8.84375 18.4062 8.40625 17.9688C7.96875 17.5312 7.75 17 7.75 16.375C7.75 15.75 7.96875 15.2188 8.40625 14.7812C8.84375 14.3438 9.375 14.125 10 14.125V12.625C10 12.2125 10.1469 11.8594 10.4406 11.5656C10.7344 11.2719 11.0875 11.125 11.5 11.125H13.75C13.75 10.5 13.9688 9.96875 14.4062 9.53125C14.8438 9.09375 15.375 8.875 16 8.875C16.625 8.875 17.1562 9.09375 17.5938 9.53125C18.0312 9.96875 18.25 10.5 18.25 11.125H20.5C20.9125 11.125 21.2656 11.2719 21.5594 11.5656C21.8531 11.8594 22 12.2125 22 12.625V14.125C22.625 14.125 23.1562 14.3438 23.5938 14.7812C24.0312 15.2188 24.25 15.75 24.25 16.375C24.25 17 24.0312 17.5312 23.5938 17.9688C23.1562 18.4062 22.625 18.625 22 18.625V21.625C22 22.0375 21.8531 22.3906 21.5594 22.6844C21.2656 22.9781 20.9125 23.125 20.5 23.125H11.5C11.0875 23.125 10.7344 22.9781 10.4406 22.6844C10.1469 22.3906 10 22.0375 10 21.625V18.625ZM13.75 17.125C14.0625 17.125 14.3281 17.0156 14.5469 16.7969C14.7656 16.5781 14.875 16.3125 14.875 16C14.875 15.6875 14.7656 15.4219 14.5469 15.2031C14.3281 14.9844 14.0625 14.875 13.75 14.875C13.4375 14.875 13.1719 14.9844 12.9531 15.2031C12.7344 15.4219 12.625 15.6875 12.625 16C12.625 16.3125 12.7344 16.5781 12.9531 16.7969C13.1719 17.0156 13.4375 17.125 13.75 17.125ZM18.25 17.125C18.5625 17.125 18.8281 17.0156 19.0469 16.7969C19.2656 16.5781 19.375 16.3125 19.375 16C19.375 15.6875 19.2656 15.4219 19.0469 15.2031C18.8281 14.9844 18.5625 14.875 18.25 14.875C17.9375 14.875 17.6719 14.9844 17.4531 15.2031C17.2344 15.4219 17.125 15.6875 17.125 16C17.125 16.3125 17.2344 16.5781 17.4531 16.7969C17.6719 17.0156 17.9375 17.125 18.25 17.125ZM13 20.125H19V18.625H13V20.125ZM11.5 21.625H20.5V12.625H11.5V21.625Z" fill="#22C55E"/>
</svg>
