<svg width="17" height="17" viewBox="0 0 17 17" fill="none" xmlns="http://www.w3.org/2000/svg">
<path d="M2.01562 16.0312C3.09375 16.0312 4.03125 15.0938 4.03125 14.0156V7.03125C4.03125 5.90625 3.09375 5.01562 2.01562 5.01562C0.9375 5.01562 0 5.90625 0 7.03125V14.0156C0 15.0938 0.9375 16.0312 2.01562 16.0312ZM12 11.0156V14.0156C12 15.0938 12.9375 16.0312 14.0156 16.0312C15.0938 16.0312 16.0312 15.0938 16.0312 14.0156V11.0156C16.0312 9.9375 15.0938 9 14.0156 9C12.9375 9 12 9.9375 12 11.0156ZM8.01562 16.0312C9.09375 16.0312 10.0312 15.0938 10.0312 14.0156V2.01562C10.0312 0.9375 9.09375 0 8.01562 0C6.9375 0 6 0.9375 6 2.01562V14.0156C6 15.0938 6.9375 16.0312 8.01562 16.0312Z" fill="#9CA3AF"/>
</svg>
