<svg width="20" height="20" viewBox="0 0 20 20" fill="none" xmlns="http://www.w3.org/2000/svg">
<path d="M9 1.0094V18.6344C9 19.2907 8.39062 19.7594 7.78125 19.6188C3.28125 18.6344 0 14.6032 0 9.8219C0 5.04065 3.28125 1.0094 7.78125 0.0250293C8.39062 -0.115596 9 0.353154 9 1.0094ZM11.0156 1.0094V7.80628C11.0156 8.36878 11.4844 8.79065 12 8.79065H18.7969C19.4531 8.79065 19.9219 8.22815 19.7812 7.5719C18.9375 3.8219 15.9844 0.868779 12.2344 0.0250293C11.625 -0.115596 11.0156 0.353154 11.0156 1.0094ZM11.0156 11.8375V18.6344C11.0156 19.2907 11.625 19.7594 12.2344 19.6188C15.9844 18.775 18.9375 15.8219 19.7812 12.025C19.9219 11.4157 19.4531 10.8063 18.7969 10.8063H12.0469C11.4844 10.8532 11.0156 11.275 11.0156 11.8375Z" fill="#9CA3AF"/>
</svg>
